<svg width="213" height="56" viewBox="0 0 213 56" fill="none" xmlns="http://www.w3.org/2000/svg">
<g clip-path="url(#clip0_569_450)">
<path d="M16.261 37.6237L8.73275 37.5786L12.5232 28.4875H12.6023L16.261 37.6237ZM10.9498 23.1938L0 47.7111H4.68632L7.30991 40.8796L17.0665 40.9247L19.4718 47.7148H25.5433L15.4404 23.1976H10.946L10.9498 23.1938Z" fill="#12636B"/>
<path d="M37.1594 31.9013H37.2346L38.2698 30.405C38.8833 29.6004 40.0013 28.0664 41.5747 28.0664C42.7265 28.0664 43.9574 28.6792 45.0339 29.7921L43.1104 33.3225C42.2635 32.9014 41.729 32.6721 40.6901 32.6721C38.921 32.6721 37.1932 34.0895 37.1932 38.2365V47.711H32.0853V28.5289H37.1556V31.9051L37.1594 31.9013Z" fill="#12636B"/>
<path d="M55.6261 30.7921C57.3538 28.9498 59.7742 28.0701 62.1945 28.0701C66.6888 28.0701 69.0715 30.5252 69.0715 35.3564V47.7109H63.9636V35.9317C63.9636 33.2472 62.7704 31.4801 60.1205 31.4801C57.6211 31.4801 55.6638 33.1307 55.6638 36.2776V47.7109H50.5558V28.5288H55.6261V30.7921Z" fill="#12636B"/>
<path d="M82.3928 30.7922C84.1205 28.9499 86.5408 28.0701 88.9574 28.0701C93.4555 28.0701 95.8344 30.5252 95.8344 35.3565V47.7109H90.7265V35.9317C90.7265 33.2473 89.537 31.4802 86.8871 31.4802C84.3877 31.4802 82.4304 33.1307 82.4304 36.2776V47.7109H77.3187V21.0732H82.389V30.7922H82.3928Z" fill="#12636B"/>
<path d="M108.384 35.819C108.346 33.2473 109.652 30.905 112.573 30.905C115.107 30.905 116.146 32.9014 115.954 35.819H108.384ZM120.757 38.5786C121.141 32.8601 118.645 28.0664 112.652 28.0664C107.161 28.0664 102.858 31.8224 102.858 37.7327C102.858 44.0641 107.198 48.1697 112.999 48.1697C115.189 48.1697 117.915 47.5569 120.527 46.0191L119.066 43.3347C117.798 44.2145 115.803 44.8686 113.917 44.8686C110.729 44.8686 108.196 42.1842 108.309 38.5786H120.753H120.757Z" fill="#12636B"/>
<path d="M132.7 30.7923H132.775C134.082 29.0666 136.577 28.0703 138.843 28.0703C141.264 28.0703 143.338 29.029 144.489 30.7923C146.104 29.2546 148.6 28.1041 150.866 28.0703C155.206 28.0289 157.472 30.6796 157.547 35.0897V47.6735H152.439V36.0109C152.439 33.7851 151.671 31.4841 149.138 31.4841C146.605 31.4841 145.144 32.9429 145.144 36.2816V47.7149H140.036V36.0146C140.036 33.3302 138.847 31.4879 136.656 31.4879C134.236 31.4879 132.738 33.1384 132.738 36.4019V47.7187H127.63V28.5365H132.7V30.7999V30.7923Z" fill="#12636B"/>
<path d="M208.772 9H170.363V22.1779C170.363 22.1779 175.362 26.0203 178.52 25.1819C175.11 22.8433 171.316 14.9705 173.318 14.0343C173.872 15.0945 183.188 25.0616 186.259 23.2795C187.309 22.6328 185.567 17.2827 185.032 16.8353C182.296 19.3017 180.877 17.7226 180.929 17.1022C182.126 17.5835 183.892 16.9406 183.892 15.384C183.086 16.0307 180.798 17.4782 179.608 15.8502C179.269 15.3276 179.424 14.7298 179.796 14.8163C180.444 16.7789 182.616 15.1885 183.455 14.4479C183.455 14.4479 182.33 13.6959 180.696 15.1509C180.342 14.8163 180.214 13.5944 181.234 12.959C182.634 12.1281 187.991 11.1318 187.991 11.1318C187.468 12.568 188.864 20.9823 189.572 21.7079C190.279 20.9823 191.672 12.5717 191.156 11.1318C191.156 11.1318 196.513 12.1319 197.917 12.959C198.933 13.5944 198.805 14.8163 198.455 15.1547C196.821 13.6997 195.696 14.4516 195.696 14.4516C196.535 15.1923 198.711 16.7826 199.355 14.8201C199.727 14.7336 199.885 15.3276 199.543 15.8502C198.357 17.4782 196.069 16.0345 195.259 15.384C195.259 16.9406 197.025 17.5835 198.222 17.1022C198.274 17.7226 196.851 19.3017 194.119 16.8353C193.58 17.2864 191.838 22.6365 192.888 23.2795C195.956 25.0578 205.272 15.0945 205.825 14.0343C207.828 14.9705 204.037 22.8396 200.627 25.1819C203.785 26.0203 208.787 22.1779 208.787 22.1779V9H208.772Z" fill="#002469"/>
<path d="M199.201 32.4465C201.207 35.5295 207.124 34.1158 207.162 34.255C206.887 36.6837 202.223 37.7628 198.471 36.3228C200.134 39.3832 204.305 38.4771 204.365 38.6275C204.207 39.9058 201.105 42.0865 194.059 39.2817C194.059 39.2817 193.016 39.0561 193.656 39.9961C194.718 41.436 195.305 41.9962 196.814 43.2407C197.134 43.628 196.419 43.7182 196.611 44.1882C197.443 45.6319 199.272 45.583 199.438 45.0567C199.656 44.395 198.708 43.3798 199.931 42.9512C202.141 42.1767 202.419 43.7972 202.269 44.1806C200.533 43.5791 200.356 45.2033 200.729 45.85C201.467 46.8425 202.408 44.6281 203.473 44.6093C204.964 44.6281 205.261 45.959 204.636 46.5606C203.914 45.5981 202.637 47.6734 201.376 47.4178C200.857 47.3313 200.503 46.3613 199.946 47.2448C200.364 47.7712 201.508 47.7261 201.839 48.5607C202.069 49.3052 200.962 49.9631 200.21 49.8992C200.285 48.8653 198.764 46.5418 196.054 49.0157C196.054 49.0157 195.147 48.0081 195.696 47.32C196.254 46.7711 197.112 47.2448 197.605 46.8801C197.409 46.1921 196.272 45.4853 195.587 45.098C195.162 44.8574 194.865 45.8274 194.631 45.3086C193.325 42.564 190.551 40.0111 190.615 41.2029C190.89 44.5153 194.243 46.5079 194.515 48.3088C194.725 49.8729 194.172 51.4745 192.064 51.1249C194.21 50.1962 193.397 46.9779 191.808 46.6094L190.468 48.3991C190.468 48.6773 190.521 48.8841 190.871 49.0833C191.311 49.2976 191.902 48.6322 192.117 49.2525C192.339 49.9594 190.743 50.2263 190.521 50.8203C190.363 51.2565 191.225 51.2001 190.814 51.5873C190.363 52.031 189.587 52.6776 189.587 52.6776C189.587 52.6776 188.812 52.0272 188.36 51.5873C187.95 51.2001 188.816 51.2602 188.654 50.8203C188.432 50.2263 186.839 49.9594 187.062 49.2525C187.272 48.6322 187.863 49.2976 188.304 49.0833C188.658 48.8841 188.71 48.6773 188.71 48.3953L187.374 46.6057C185.786 46.9741 184.972 50.1962 187.118 51.1211C185.01 51.4708 184.457 49.8691 184.668 48.3088C184.935 46.5042 188.292 44.5153 188.563 41.2029C188.627 40.0073 185.85 42.5602 184.543 45.3086C184.31 45.8274 184.013 44.8574 183.587 45.098C182.902 45.4853 181.765 46.1883 181.57 46.8764C182.063 47.2411 182.921 46.7673 183.482 47.3163C184.028 48.0081 183.117 49.0119 183.117 49.0119C180.41 46.538 178.886 48.8578 178.965 49.8917C178.212 49.9556 177.105 49.2976 177.335 48.5532C177.666 47.7186 178.807 47.7674 179.228 47.2373C178.668 46.3538 178.321 47.3238 177.798 47.4065C176.533 47.6659 175.261 45.5905 174.538 46.553C173.91 45.9515 174.207 44.6205 175.698 44.6017C176.763 44.6205 177.704 46.835 178.438 45.8424C178.811 45.1995 178.63 43.5716 176.898 44.1769C176.748 43.7934 177.023 42.1692 179.232 42.9475C180.456 43.3761 179.511 44.3874 179.725 45.0529C179.891 45.5793 181.72 45.6319 182.548 44.1844C182.744 43.7144 182.025 43.628 182.345 43.2407C183.855 41.9962 184.442 41.4398 185.503 39.9961C186.147 39.0561 185.1 39.2817 185.1 39.2817C178.054 42.0827 174.952 39.9021 174.794 38.6238C174.851 38.4696 179.021 39.3795 180.685 36.319C176.929 37.759 172.265 36.68 171.994 34.2512C172.031 34.1158 177.952 35.522 179.955 32.4428C175.163 34.176 170.778 31.469 170.349 31.1306V50.8805C170.876 55.3095 180.757 52.7077 189.58 55.1252C198.403 52.7077 208.287 55.3095 208.811 50.8843V31.1381C208.385 31.4803 203.996 34.1835 199.205 32.4503L199.201 32.4465Z" fill="#002469"/>
<path d="M208.826 7.0119C208.826 7.0119 208.765 4.44776 212.247 3.40256C212.247 3.40256 211.954 1.47382 208.875 1.4663C207.696 1.4663 206.183 2.40623 205.829 3.13562C205.619 2.39871 202.103 0.0150389 200.39 0.0150389C198.678 0.0150389 195.128 2.31224 194.891 3.04162C194.627 2.35735 191.3 0.0338376 189.576 0.00751946V0C187.867 0 184.502 2.34983 184.235 3.03786C183.998 2.30848 180.44 0.0112792 178.735 0.0112792C177.03 0.0112792 173.507 2.39119 173.3 3.13186C172.946 2.40247 171.437 1.45878 170.258 1.46254C167.172 1.47006 166.882 3.3988 166.882 3.3988C170.285 4.45152 170.304 7.00438 170.304 7.00438L208.822 7.0119H208.826Z" fill="#002469"/>
<path d="M82.7277 12.8168V15.4561C82.0765 15.6855 81.3877 15.8509 80.6951 15.8509C78.5947 15.8509 77.266 14.3884 77.266 12.5085C77.266 10.764 78.5872 9.23755 80.729 9.23755C81.399 9.23755 82.0652 9.45561 82.4642 9.73007L82.0765 10.4895C81.7453 10.3053 81.2334 10.1512 80.7666 10.1512C79.4642 10.1512 78.5684 11.0723 78.5684 12.5273C78.5684 13.9823 79.5922 14.9373 80.6424 14.9373C80.9736 14.9373 81.2409 14.8997 81.5044 14.7832V12.8206H82.7277V12.8168Z" fill="#002469"/>
<path d="M92.857 10.2038H90.1167V11.9558H92.8118V12.8168H90.1167V14.8809H93.2296V15.7381H88.8934V9.34277H92.857V10.2V10.2038Z" fill="#002469"/>
<path d="M105.851 15.7381H104.627V10.7527H104.609C103.939 12.531 103.246 14.1402 102.561 15.7381H101.902C101.251 14.1402 100.592 12.531 99.9599 10.7527H99.9448V15.7381H98.9624V9.34277H100.472C101.1 10.9143 102.105 13.4183 102.339 14.2379H102.354C102.64 13.3807 103.735 10.9143 104.428 9.34277H105.851V15.7381Z" fill="#002469"/>
<path d="M115.987 10.2038H113.251V11.9558H115.946V12.8168H113.251V14.8809H116.364V15.7381H112.028V9.34277H115.987V10.2V10.2038Z" fill="#002469"/>
<path d="M126.056 10.2038H123.316V11.9558H126.015V12.8168H123.316V14.8809H126.429V15.7381H122.093V9.34277H126.056V10.2V10.2038Z" fill="#002469"/>
<path d="M137.514 15.7381H136.63C135.467 14.268 134.304 12.8055 133.159 11.1512H133.141V15.7381H132.158V9.34277H133.05C134.213 10.8015 135.369 12.2566 136.517 13.8996H136.532V9.34277H137.514V15.7381Z" fill="#002469"/>
<path d="M144.791 15.7381V10.2H142.92V9.34277H147.892V10.2H146.018V15.7381H144.794H144.791Z" fill="#002469"/>
<path d="M157.178 10.2038H154.442V11.9558H157.137V12.8168H154.442V14.8809H157.555V15.7381H153.218V9.34277H157.182V10.2L157.178 10.2038Z" fill="#002469"/>
</g>
<defs>
<clipPath id="clip0_569_450">
<rect width="213" height="56" fill="white"/>
</clipPath>
</defs>
</svg>
